<svg width="39" height="38" viewBox="0 0 39 38" fill="none" xmlns="http://www.w3.org/2000/svg">
<path d="M19.5 0C8.73147 0 0 8.50759 0 19C0 29.4924 8.73147 38 19.5 38C30.2685 38 39 29.4924 39 19C39 8.50759 30.2685 0 19.5 0ZM27.1825 24.84L25.9376 26.494C25.9105 26.53 25.8764 26.5604 25.8372 26.5836C25.798 26.6067 25.7545 26.622 25.7092 26.6287C25.6639 26.6355 25.6177 26.6334 25.5733 26.6226C25.5288 26.6118 25.4869 26.5926 25.4501 26.5661L18.2508 21.4513C18.2059 21.42 18.1695 21.3785 18.1445 21.3306C18.1195 21.2826 18.1067 21.2295 18.1071 21.1757V9.5C18.1071 9.31339 18.2638 9.16071 18.4554 9.16071H20.549C20.7405 9.16071 20.8972 9.31339 20.8972 9.5V19.9967L27.1041 24.3692C27.2608 24.4752 27.2956 24.6873 27.1825 24.84Z" fill="black"/>
</svg>
