<svg width="18" height="17" viewBox="0 0 18 17" fill="none" xmlns="http://www.w3.org/2000/svg">
<path d="M0.35998 0.350826C0.473801 0.239619 0.609016 0.151388 0.757879 0.0911873C0.906742 0.0309867 1.06633 0 1.2275 0C1.38867 0 1.54826 0.0309867 1.69712 0.0911873C1.84599 0.151388 1.9812 0.239619 2.09502 0.350826L8.57936 6.67266L15.0637 0.350826C15.1776 0.239799 15.3129 0.151727 15.4617 0.0916395C15.6106 0.0315519 15.7701 0.000625218 15.9312 0.000625218C16.0923 0.000625218 16.2519 0.0315519 16.4007 0.0916395C16.5496 0.151727 16.6848 0.239799 16.7987 0.350826C16.9127 0.461853 17.003 0.593661 17.0647 0.738725C17.1264 0.88379 17.1581 1.03927 17.1581 1.19629C17.1581 1.3533 17.1264 1.50878 17.0647 1.65384C17.003 1.79891 16.9127 1.93072 16.7987 2.04174L10.312 8.36119L16.7987 14.6806C16.9127 14.7917 17.003 14.9235 17.0647 15.0685C17.1264 15.2136 17.1581 15.3691 17.1581 15.5261C17.1581 15.6831 17.1264 15.8386 17.0647 15.9837C17.003 16.1287 16.9127 16.2605 16.7987 16.3716C16.6848 16.4826 16.5496 16.5707 16.4007 16.6307C16.2519 16.6908 16.0923 16.7218 15.9312 16.7218C15.7701 16.7218 15.6106 16.6908 15.4617 16.6307C15.3129 16.5707 15.1776 16.4826 15.0637 16.3716L8.57936 10.0497L2.09502 16.3716C1.9811 16.4826 1.84585 16.5707 1.697 16.6307C1.54815 16.6908 1.38861 16.7218 1.2275 16.7218C1.06639 16.7218 0.906851 16.6908 0.758002 16.6307C0.609152 16.5707 0.473905 16.4826 0.35998 16.3716C0.246056 16.2605 0.155686 16.1287 0.0940307 15.9837C0.0323753 15.8386 0.000641532 15.6831 0.000641532 15.5261C0.000641532 15.3691 0.0323753 15.2136 0.0940307 15.0685C0.155686 14.9235 0.246056 14.7917 0.35998 14.6806L6.84678 8.36119L0.35998 2.04174C0.245871 1.93082 0.155338 1.79904 0.0935668 1.65396C0.0317953 1.50889 0 1.35336 0 1.19629C0 1.03921 0.0317953 0.883684 0.0935668 0.738606C0.155338 0.593528 0.245871 0.461752 0.35998 0.350826Z" fill="#FF0000"/>
</svg>
