<svg width="20" height="24" viewBox="0 0 20 24" fill="none" xmlns="http://www.w3.org/2000/svg">
<path d="M15.7143 9C14.705 9 13.7774 8.63348 13.0451 8.02055L8.46982 11.0231C8.60531 11.6666 8.60531 12.3334 8.46982 12.977L13.0451 15.9795C13.7774 15.3665 14.705 15 15.7143 15C18.0812 15 20 17.0147 20 19.5C20 21.9853 18.0812 24 15.7143 24C13.3474 24 11.4286 21.9853 11.4286 19.5C11.4286 19.1645 11.4638 18.8377 11.5302 18.5231L6.95491 15.5205C6.22263 16.1335 5.295 16.5 4.28571 16.5C1.91879 16.5 0 14.4853 0 12C0 9.51473 1.91879 7.5 4.28571 7.5C5.295 7.5 6.22263 7.86651 6.95491 8.47945L11.5302 5.47692C11.4626 5.15613 11.4285 4.82855 11.4286 4.5C11.4286 2.01473 13.3474 0 15.7143 0C18.0812 0 20 2.01473 20 4.5C20 6.98527 18.0812 9 15.7143 9Z" fill="white"/>
</svg>
