<svg width="44" height="40" viewBox="0 0 44 40" fill="none" xmlns="http://www.w3.org/2000/svg">
<path d="M43.7632 15.1491C45.0467 22.8152 41.0282 30.142 33.7593 33.7321C34.9085 36.7768 32.6632 40 29.4879 40C28.318 39.9991 27.1929 39.5448 26.3448 38.7308C25.4966 37.9168 24.99 36.8051 24.9293 35.625C24.36 35.642 19.2542 35.625 18.1819 35.5679C18.1577 36.1738 18.0155 36.7689 17.7634 37.3193C17.5113 37.8697 17.1543 38.3645 16.7128 38.7755C16.2713 39.1864 15.754 39.5055 15.1903 39.7143C14.6267 39.9232 14.0278 40.0179 13.4279 39.9929C10.4348 39.8714 8.30533 36.8821 9.27328 33.9286C5.98402 32.758 2.86095 30.8152 0.467157 27.6071C-0.682006 26.0643 0.424726 23.875 2.30935 23.875C6.40302 23.875 5.15751 19.0384 6.12369 14.0304C7.75285 5.64286 16.4441 0 24.8391 0C33.8981 0 42.2666 6.30982 43.7632 15.1491ZM32.39 31.8107C36.1027 30.0982 39.5794 26.7473 40.9018 22.6911C44.4801 11.7009 35.2311 2.33393 24.8391 2.33393C17.4624 2.33393 9.78333 7.28214 8.39108 14.4768C7.54865 18.8438 8.83306 26.2045 2.31377 26.2045C4.5184 29.1607 7.46998 30.9027 10.5992 31.9232C12.7791 29.9768 16.2452 30.542 17.656 33.2036C18.913 33.2929 24.6562 33.3089 25.4261 33.2768C25.737 32.6634 26.1799 32.1281 26.7224 31.7102C27.2649 31.2924 27.8931 31.0025 28.561 30.8619C29.2289 30.7213 29.9194 30.7335 30.582 30.8977C31.2446 31.0619 31.8624 31.3739 32.39 31.8107ZM17.5048 13.8509C17.5048 10.7491 21.9989 10.7482 21.9989 13.8509C21.9989 16.9536 17.5048 16.9527 17.5048 13.8509ZM27.8093 13.8509C27.8093 10.7491 32.3052 10.7482 32.3052 13.8509C32.3052 16.9536 27.8093 16.9536 27.8093 13.8509ZM16.9709 20.1625C16.6668 18.65 18.9315 18.1821 19.2356 19.6973L19.2409 19.7223C19.6069 21.6348 21.8796 23.6509 24.909 23.5679C28.063 23.4839 30.1465 21.5848 30.5761 19.7491C30.9704 18.3161 33.1043 18.8241 32.8276 20.2848C32.3653 22.2652 30.0687 25.8205 24.7428 25.9009C20.9815 25.9009 17.5932 23.4152 16.9727 20.1643L16.9709 20.1625Z" fill="#FDFEFF"/>
</svg>
