<svg width="32" height="33" viewBox="0 0 32 33" fill="none" xmlns="http://www.w3.org/2000/svg">
<circle cx="16" cy="16.6316" r="16" fill="#07A0C3"/>
<path d="M26.8816 14.8274C27.5234 18.4688 25.5141 21.949 21.8796 23.6544C22.4542 25.1006 21.3316 26.6316 19.744 26.6316C19.159 26.6312 18.5965 26.4154 18.1724 26.0287C17.7483 25.6421 17.495 25.114 17.4646 24.5535C17.18 24.5615 14.6271 24.5535 14.091 24.5263C14.0789 24.8141 14.0077 25.0968 13.8817 25.3583C13.7557 25.6197 13.5772 25.8547 13.3564 26.0499C13.1357 26.2451 12.877 26.3967 12.5952 26.4959C12.3133 26.5951 12.0139 26.6401 11.714 26.6282C10.2174 26.5705 9.15267 25.1506 9.63664 23.7477C7.99201 23.1917 6.43048 22.2688 5.23358 20.745C4.659 20.0121 5.21236 18.9722 6.15468 18.9722C8.20151 18.9722 7.57875 16.6748 8.06184 14.296C8.87642 10.3119 13.222 7.63159 17.4196 7.63159C21.949 7.63159 26.1333 10.6288 26.8816 14.8274ZM21.195 22.7417C23.0513 21.9282 24.7897 20.3366 25.4509 18.4099C27.24 13.1895 22.6155 8.74021 17.4196 8.74021C13.7312 8.74021 9.89166 11.0906 9.19554 14.5081C8.77433 16.5824 9.41653 20.0787 6.15689 20.0787C7.2592 21.4829 8.73499 22.3104 10.2996 22.7951C11.3896 21.8706 13.1226 22.139 13.828 23.4033C14.4565 23.4457 17.3281 23.4533 17.713 23.4381C17.8685 23.1467 18.09 22.8925 18.3612 22.694C18.6324 22.4955 18.9466 22.3578 19.2805 22.291C19.6144 22.2242 19.9597 22.23 20.291 22.308C20.6223 22.386 20.9312 22.5342 21.195 22.7417ZM13.7524 14.2108C13.7524 12.7374 15.9995 12.737 15.9995 14.2108C15.9995 15.6845 13.7524 15.6841 13.7524 14.2108ZM18.9046 14.2108C18.9046 12.7374 21.1526 12.737 21.1526 14.2108C21.1526 15.6845 18.9046 15.6845 18.9046 14.2108ZM13.4855 17.2088C13.3334 16.4903 14.4658 16.2681 14.6178 16.9878L14.6205 16.9997C14.8035 17.9081 15.9398 18.8658 17.4545 18.8263C19.0315 18.7865 20.0732 17.8844 20.2881 17.0124C20.4852 16.3317 21.5521 16.573 21.4138 17.2669C21.1826 18.2076 20.0344 19.8963 17.3714 19.9345C15.4907 19.9345 13.7966 18.7538 13.4863 17.2096L13.4855 17.2088Z" fill="#FDFEFF"/>
</svg>
