<svg width="31" height="32" viewBox="0 0 31 32" fill="none" xmlns="http://www.w3.org/2000/svg">
<path d="M24.3571 12C22.7927 12 21.3549 11.5113 20.2199 10.6941L13.1282 14.6974C13.3382 15.5555 13.3382 16.4446 13.1282 17.3026L20.2199 21.306C21.3549 20.4887 22.7927 20 24.3571 20C28.0259 20 31 22.6863 31 26C31 29.3137 28.0259 32 24.3571 32C20.6884 32 17.7143 29.3137 17.7143 26C17.7143 25.5526 17.769 25.1169 17.8718 24.6974L10.7801 20.6941C9.64508 21.5113 8.20725 22 6.64286 22C2.97413 22 0 19.3137 0 16C0 12.6863 2.97413 10 6.64286 10C8.20725 10 9.64508 10.4887 10.7801 11.3059L17.8718 7.30256C17.767 6.87485 17.7141 6.43807 17.7143 6C17.7143 2.68631 20.6884 0 24.3571 0C28.0259 0 31 2.68631 31 6C31 9.31369 28.0259 12 24.3571 12Z" fill="#07A0C3"/>
</svg>
