<svg width="55" height="46" viewBox="0 0 55 46" fill="none" xmlns="http://www.w3.org/2000/svg">
<path d="M9.85702 0.842041C7.46249 0.842041 5.16603 1.78783 3.47284 3.47134C1.77965 5.15486 0.82843 7.43819 0.82843 9.81904V10.7212L27.9142 25.2236L55 10.7257V9.81904C55 7.43819 54.0487 5.15486 52.3556 3.47134C50.6624 1.78783 48.3659 0.842041 45.9714 0.842041H9.85702ZM55 15.8202L28.9841 29.748C28.6553 29.924 28.2876 30.0161 27.9142 30.0161C27.5408 30.0161 27.1731 29.924 26.8443 29.748L0.82843 15.8202V36.75C0.82843 39.1309 1.77965 41.4142 3.47284 43.0977C5.16603 44.7812 7.46249 45.727 9.85702 45.727H45.9714C48.3659 45.727 50.6624 44.7812 52.3556 43.0977C54.0487 41.4142 55 39.1309 55 36.75V15.8202Z" fill="#0D2F29"/>
</svg>
