<svg width="46" height="46" viewBox="0 0 46 46" fill="none" xmlns="http://www.w3.org/2000/svg">
<path d="M8.45499 0.842041C3.91493 0.842041 0.259277 4.49769 0.259277 9.03775V37.5313C0.259277 42.0713 3.91493 45.727 8.45499 45.727H23.8982V28.1798H19.2582V21.8622H23.8982V16.4648C23.8982 12.2243 26.6397 8.33082 32.9551 8.33082C35.5121 8.33082 37.403 8.57629 37.403 8.57629L37.2543 14.4759C37.2543 14.4759 35.3259 14.4577 33.2216 14.4577C30.9442 14.4577 30.579 15.507 30.579 17.249V21.8623H37.4352L37.1364 28.1798H30.579V45.727H36.9485C41.4885 45.727 45.1442 42.0714 45.1442 37.5313V9.0378C45.1442 4.49774 41.4885 0.842086 36.9485 0.842086L8.45499 0.842041Z" fill="#0D2F29"/>
</svg>
