<svg width="54" height="46" viewBox="0 0 54 46" fill="none" xmlns="http://www.w3.org/2000/svg">
<path fill-rule="evenodd" clip-rule="evenodd" d="M40.8195 45.2332C41.5302 45.7493 42.4629 45.8616 43.2847 45.5698C44.1064 45.2556 44.706 44.5374 44.8837 43.6846C46.8159 34.5281 51.5019 11.3226 53.2564 2.97395C53.3896 2.34556 53.1675 1.69472 52.679 1.26832C52.1904 0.84191 51.5241 0.729697 50.9023 0.954122C41.5968 4.43271 12.9253 15.3173 1.19914 19.6936C0.466256 19.9629 -0.0223363 20.7035 -0.000127533 21.489C0.0220812 22.2745 0.55509 22.9702 1.31019 23.1946C6.57365 24.7881 13.4584 26.9874 13.4584 26.9874C13.4584 26.9874 16.6786 36.8397 18.3665 41.8219C18.5886 42.4503 19.055 42.944 19.699 43.1236C20.3431 43.3031 21.0315 43.1236 21.4979 42.6523C24.2074 40.0714 28.3826 36.0991 28.3826 36.0991C28.3826 36.0991 36.3111 41.979 40.8195 45.2107V45.2332ZM16.3677 25.7531L20.0988 38.1862L20.9205 30.3089C20.9205 30.3089 35.3339 17.18 43.5512 9.7067C43.7955 9.48227 43.8177 9.12319 43.6178 8.85388C43.4179 8.60701 43.0626 8.53969 42.7739 8.71923C33.2463 14.8685 16.3677 25.7755 16.3677 25.7755V25.7531Z" fill="#0D2F29"/>
</svg>
