<svg width="50" height="51" viewBox="0 0 50 51" fill="none" xmlns="http://www.w3.org/2000/svg">
<g clip-path="url(#clip0_347_9589)">
<path d="M49.5751 25.3085C49.5689 38.8388 38.5062 49.8491 24.9157 49.8491H24.9064C20.7792 49.8491 16.7225 48.8172 13.121 46.8609L0.046814 50.2748L3.54689 37.5558C1.38781 33.8357 0.252883 29.6136 0.255982 25.2872C0.259081 11.7538 11.3217 0.746582 24.9153 0.746582C31.5123 0.749667 37.7032 3.30635 42.3596 7.94501C47.0159 12.5837 49.5778 18.7502 49.5747 25.3085H49.5751Z" fill="#0D2F29"/>
<path d="M36.9809 34.0593C36.4672 35.4923 33.9514 36.8732 32.8196 36.9742C31.6908 37.0783 30.633 37.4825 25.4259 35.4402C19.164 32.9815 15.2092 26.5917 14.9016 26.1814C14.5941 25.7711 12.3858 22.8562 12.3858 19.8371C12.3858 16.8181 13.9759 15.3361 14.5418 14.7207C15.1077 14.1083 15.7751 13.9521 16.1841 13.9521C16.5932 13.9521 17.0053 13.9521 17.3652 13.9676C17.8048 13.9861 18.2909 14.0073 18.7523 15.0269C19.2996 16.2393 20.4961 19.2737 20.653 19.5799C20.8068 19.8892 20.9082 20.2474 20.7022 20.6547C20.4961 21.065 20.3946 21.3191 20.0871 21.6773C19.7795 22.0356 19.4382 22.4794 19.1644 22.7521C18.8537 23.0583 18.5338 23.3918 18.8936 24.0042C19.2504 24.6196 20.4899 26.6253 22.3197 28.251C24.6756 30.3423 26.6592 30.9882 27.2743 31.2975C27.8925 31.6037 28.2524 31.5516 28.6091 31.1413C28.969 30.7341 30.15 29.3532 30.5621 28.7377C30.9712 28.1253 31.3833 28.2264 31.9461 28.4315C32.512 28.6367 35.5415 30.1186 36.1566 30.4279C36.7748 30.7341 37.1838 30.8872 37.3407 31.1413C37.4945 31.3985 37.4945 32.6263 36.9809 34.0593Z" fill="white"/>
</g>
<defs>
<clipPath id="clip0_347_9589">
<rect width="49.5283" height="49.5283" fill="white" transform="translate(0.046814 0.746582)"/>
</clipPath>
</defs>
</svg>
