<svg width="22" height="18" viewBox="0 0 22 18" fill="none" xmlns="http://www.w3.org/2000/svg">
<path d="M11.2944 9.22C11.7886 8.75813 12.185 8.18688 12.4567 7.54502C12.7284 6.90316 12.869 6.20571 12.869 5.5C12.869 4.17392 12.3811 2.90215 11.5125 1.96447C10.644 1.02678 9.46601 0.5 8.23771 0.5C7.00941 0.5 5.83143 1.02678 4.96289 1.96447C4.09435 2.90215 3.60641 4.17392 3.60641 5.5C3.60641 6.20571 3.74702 6.90316 4.01872 7.54502C4.29041 8.18688 4.68682 8.75813 5.18105 9.22C3.88442 9.85388 2.78433 10.8775 2.0123 12.1685C1.24028 13.4596 0.829 14.9633 0.827637 16.5C0.827637 16.7652 0.925224 17.0196 1.09893 17.2071C1.27264 17.3946 1.50824 17.5 1.7539 17.5C1.99955 17.5 2.23515 17.3946 2.40886 17.2071C2.58257 17.0196 2.68015 16.7652 2.68015 16.5C2.68015 14.9087 3.26568 13.3826 4.30792 12.2574C5.35017 11.1321 6.76375 10.5 8.23771 10.5C9.71166 10.5 11.1252 11.1321 12.1675 12.2574C13.2097 13.3826 13.7953 14.9087 13.7953 16.5C13.7953 16.7652 13.8929 17.0196 14.0666 17.2071C14.2403 17.3946 14.4759 17.5 14.7215 17.5C14.9672 17.5 15.2028 17.3946 15.3765 17.2071C15.5502 17.0196 15.6478 16.7652 15.6478 16.5C15.6464 14.9633 15.2351 13.4596 14.4631 12.1685C13.6911 10.8775 12.591 9.85388 11.2944 9.22ZM8.23771 8.5C7.68812 8.5 7.15087 8.32405 6.6939 7.99441C6.23694 7.66476 5.88077 7.19623 5.67045 6.64805C5.46013 6.09987 5.40511 5.49667 5.51233 4.91473C5.61955 4.33279 5.8842 3.79824 6.27282 3.37868C6.66144 2.95912 7.15657 2.6734 7.6956 2.55764C8.23463 2.44189 8.79335 2.5013 9.3011 2.72836C9.80886 2.95542 10.2428 3.33994 10.5482 3.83329C10.8535 4.32664 11.0165 4.90666 11.0165 5.5C11.0165 6.29565 10.7237 7.05871 10.2026 7.62132C9.68148 8.18393 8.97469 8.5 8.23771 8.5ZM17.2595 8.82C17.8522 8.09933 18.2395 7.20905 18.3745 6.25634C18.5095 5.30362 18.3867 4.32907 18.0206 3.45C17.6546 2.57093 17.0611 1.8248 16.3114 1.30142C15.5618 0.77805 14.688 0.499742 13.7953 0.5C13.5496 0.5 13.314 0.605357 13.1403 0.792893C12.9666 0.98043 12.869 1.23478 12.869 1.5C12.869 1.76522 12.9666 2.01957 13.1403 2.20711C13.314 2.39464 13.5496 2.5 13.7953 2.5C14.5322 2.5 15.239 2.81607 15.7602 3.37868C16.2813 3.94129 16.574 4.70435 16.574 5.5C16.5727 6.02524 16.4437 6.5409 16.1999 6.99542C15.9561 7.44994 15.606 7.82738 15.1847 8.09C15.0473 8.17552 14.9326 8.29766 14.8515 8.44474C14.7704 8.59182 14.7257 8.7589 14.7215 8.93C14.7176 9.09976 14.7539 9.2678 14.8268 9.41826C14.8997 9.56872 15.0069 9.69665 15.1383 9.79L15.4996 10.05L15.62 10.12C16.7365 10.6917 17.6784 11.596 18.3348 12.7263C18.9912 13.8566 19.3348 15.1659 19.325 16.5C19.325 16.7652 19.4226 17.0196 19.5963 17.2071C19.77 17.3946 20.0056 17.5 20.2513 17.5C20.4969 17.5 20.7325 17.3946 20.9063 17.2071C21.08 17.0196 21.1775 16.7652 21.1775 16.5C21.1851 14.9654 20.8291 13.4543 20.1434 12.1101C19.4576 10.7659 18.4649 9.63331 17.2595 8.82Z" fill="#212121"/>
</svg>
